<mxfile host="65bd71144e">
    <diagram id="4rQKyVwf3A-qkmO43616" name="第 1 页">
        <mxGraphModel dx="2224" dy="798" grid="1" gridSize="10" guides="1" tooltips="1" connect="1" arrows="1" fold="1" page="1" pageScale="1" pageWidth="827" pageHeight="1169" math="0" shadow="0">
            <root>
                <mxCell id="0"/>
                <mxCell id="1" parent="0"/>
                <mxCell id="20" value="原始sn" style="text;html=1;align=center;verticalAlign=middle;whiteSpace=wrap;rounded=0;fontStyle=1" vertex="1" parent="1">
                    <mxGeometry x="10" y="65" width="60" height="30" as="geometry"/>
                </mxCell>
                <mxCell id="21" value="" style="shape=singleArrow;direction=south;whiteSpace=wrap;html=1;rotation=40;" vertex="1" parent="1">
                    <mxGeometry x="150" y="110" width="60" height="100" as="geometry"/>
                </mxCell>
                <mxCell id="22" value="" style="shape=singleArrow;direction=south;whiteSpace=wrap;html=1;rotation=-40;" vertex="1" parent="1">
                    <mxGeometry x="320" y="110" width="60" height="100" as="geometry"/>
                </mxCell>
                <mxCell id="41" value="高位" style="text;html=1;align=center;verticalAlign=middle;whiteSpace=wrap;rounded=0;fontStyle=1" vertex="1" parent="1">
                    <mxGeometry x="-10" y="235" width="60" height="30" as="geometry"/>
                </mxCell>
                <mxCell id="42" value="低位" style="text;html=1;align=center;verticalAlign=middle;whiteSpace=wrap;rounded=0;fontStyle=1" vertex="1" parent="1">
                    <mxGeometry x="270" y="235" width="60" height="30" as="geometry"/>
                </mxCell>
                <mxCell id="43" value="高低位分隔" style="text;html=1;align=center;verticalAlign=middle;whiteSpace=wrap;rounded=0;fontStyle=1" vertex="1" parent="1">
                    <mxGeometry x="230" y="145" width="80" height="30" as="geometry"/>
                </mxCell>
                <mxCell id="44" value="" style="shape=singleArrow;direction=south;whiteSpace=wrap;html=1;" vertex="1" parent="1">
                    <mxGeometry x="110" y="290" width="60" height="100" as="geometry"/>
                </mxCell>
                <mxCell id="45" value="" style="shape=singleArrow;direction=south;whiteSpace=wrap;html=1;" vertex="1" parent="1">
                    <mxGeometry x="390" y="290" width="60" height="100" as="geometry"/>
                </mxCell>
                <mxCell id="46" value="线性同余法" style="text;html=1;align=center;verticalAlign=middle;whiteSpace=wrap;rounded=0;fontStyle=1" vertex="1" parent="1">
                    <mxGeometry x="230" y="320" width="80" height="30" as="geometry"/>
                </mxCell>
                <mxCell id="47" value="h1" style="rounded=0;whiteSpace=wrap;html=1;fillColor=#f8cecc;strokeColor=#b85450;" vertex="1" parent="1">
                    <mxGeometry x="50" y="440" width="20" height="20" as="geometry"/>
                </mxCell>
                <mxCell id="146" style="edgeStyle=none;html=1;exitX=0.5;exitY=1;exitDx=0;exitDy=0;entryX=0.5;entryY=0;entryDx=0;entryDy=0;dashed=1;strokeWidth=2;fillColor=#f8cecc;strokeColor=#b85450;" edge="1" parent="1" source="48" target="89">
                    <mxGeometry relative="1" as="geometry"/>
                </mxCell>
                <mxCell id="48" value="h2" style="rounded=0;whiteSpace=wrap;html=1;fillColor=#f8cecc;strokeColor=#b85450;" vertex="1" parent="1">
                    <mxGeometry x="70" y="440" width="20" height="20" as="geometry"/>
                </mxCell>
                <mxCell id="49" value="h3" style="rounded=0;whiteSpace=wrap;html=1;fillColor=#f8cecc;strokeColor=#b85450;" vertex="1" parent="1">
                    <mxGeometry x="90" y="440" width="20" height="20" as="geometry"/>
                </mxCell>
                <mxCell id="50" value="h4" style="rounded=0;whiteSpace=wrap;html=1;fillColor=#f8cecc;strokeColor=#b85450;" vertex="1" parent="1">
                    <mxGeometry x="110" y="440" width="20" height="20" as="geometry"/>
                </mxCell>
                <mxCell id="51" value="h5" style="rounded=0;whiteSpace=wrap;html=1;fillColor=#f8cecc;strokeColor=#b85450;" vertex="1" parent="1">
                    <mxGeometry x="130" y="440" width="20" height="20" as="geometry"/>
                </mxCell>
                <mxCell id="52" value="h6" style="rounded=0;whiteSpace=wrap;html=1;fillColor=#d5e8d4;strokeColor=#82b366;" vertex="1" parent="1">
                    <mxGeometry x="150" y="440" width="20" height="20" as="geometry"/>
                </mxCell>
                <mxCell id="147" style="edgeStyle=none;html=1;exitX=0.5;exitY=1;exitDx=0;exitDy=0;entryX=0.5;entryY=0;entryDx=0;entryDy=0;dashed=1;strokeWidth=2;fillColor=#d5e8d4;strokeColor=#82b366;" edge="1" parent="1" source="53" target="94">
                    <mxGeometry relative="1" as="geometry"/>
                </mxCell>
                <mxCell id="53" value="h7" style="rounded=0;whiteSpace=wrap;html=1;fillColor=#d5e8d4;strokeColor=#82b366;" vertex="1" parent="1">
                    <mxGeometry x="170" y="440" width="20" height="20" as="geometry"/>
                </mxCell>
                <mxCell id="54" value="h8" style="rounded=0;whiteSpace=wrap;html=1;fillColor=#d5e8d4;strokeColor=#82b366;" vertex="1" parent="1">
                    <mxGeometry x="190" y="440" width="20" height="20" as="geometry"/>
                </mxCell>
                <mxCell id="55" value="h9" style="rounded=0;whiteSpace=wrap;html=1;fillColor=#d5e8d4;strokeColor=#82b366;" vertex="1" parent="1">
                    <mxGeometry x="210" y="440" width="20" height="20" as="geometry"/>
                </mxCell>
                <mxCell id="57" value="l1" style="rounded=0;whiteSpace=wrap;html=1;fillColor=#fff2cc;strokeColor=#d6b656;" vertex="1" parent="1">
                    <mxGeometry x="330" y="440" width="20" height="20" as="geometry"/>
                </mxCell>
                <mxCell id="148" style="edgeStyle=none;html=1;exitX=0.5;exitY=1;exitDx=0;exitDy=0;entryX=0.5;entryY=0;entryDx=0;entryDy=0;dashed=1;strokeWidth=2;fillColor=#fff2cc;strokeColor=#d6b656;" edge="1" parent="1" source="58" target="101">
                    <mxGeometry relative="1" as="geometry"/>
                </mxCell>
                <mxCell id="58" value="l2" style="rounded=0;whiteSpace=wrap;html=1;fillColor=#fff2cc;strokeColor=#d6b656;" vertex="1" parent="1">
                    <mxGeometry x="350" y="440" width="20" height="20" as="geometry"/>
                </mxCell>
                <mxCell id="59" value="l3" style="rounded=0;whiteSpace=wrap;html=1;fillColor=#fff2cc;strokeColor=#d6b656;" vertex="1" parent="1">
                    <mxGeometry x="370" y="440" width="20" height="20" as="geometry"/>
                </mxCell>
                <mxCell id="60" value="l4" style="rounded=0;whiteSpace=wrap;html=1;fillColor=#dae8fc;strokeColor=#6c8ebf;" vertex="1" parent="1">
                    <mxGeometry x="390" y="440" width="20" height="20" as="geometry"/>
                </mxCell>
                <mxCell id="61" value="l5" style="rounded=0;whiteSpace=wrap;html=1;fillColor=#dae8fc;strokeColor=#6c8ebf;" vertex="1" parent="1">
                    <mxGeometry x="410" y="440" width="20" height="20" as="geometry"/>
                </mxCell>
                <mxCell id="62" value="l6" style="rounded=0;whiteSpace=wrap;html=1;fillColor=#dae8fc;strokeColor=#6c8ebf;" vertex="1" parent="1">
                    <mxGeometry x="430" y="440" width="20" height="20" as="geometry"/>
                </mxCell>
                <mxCell id="149" style="edgeStyle=none;html=1;exitX=0.5;exitY=1;exitDx=0;exitDy=0;dashed=1;strokeWidth=2;fillColor=#dae8fc;strokeColor=#6c8ebf;" edge="1" parent="1" source="63" target="106">
                    <mxGeometry relative="1" as="geometry"/>
                </mxCell>
                <mxCell id="63" value="l7" style="rounded=0;whiteSpace=wrap;html=1;fillColor=#dae8fc;strokeColor=#6c8ebf;" vertex="1" parent="1">
                    <mxGeometry x="450" y="440" width="20" height="20" as="geometry"/>
                </mxCell>
                <mxCell id="64" value="l8" style="rounded=0;whiteSpace=wrap;html=1;fillColor=#dae8fc;strokeColor=#6c8ebf;" vertex="1" parent="1">
                    <mxGeometry x="470" y="440" width="20" height="20" as="geometry"/>
                </mxCell>
                <mxCell id="65" value="l9" style="rounded=0;whiteSpace=wrap;html=1;fillColor=#dae8fc;strokeColor=#6c8ebf;" vertex="1" parent="1">
                    <mxGeometry x="490" y="440" width="20" height="20" as="geometry"/>
                </mxCell>
                <mxCell id="68" value="" style="shape=curlyBracket;whiteSpace=wrap;html=1;rounded=1;labelPosition=left;verticalLabelPosition=middle;align=right;verticalAlign=middle;" vertex="1" parent="1">
                    <mxGeometry x="-70" y="70" width="20" height="810" as="geometry"/>
                </mxCell>
                <mxCell id="69" value="循环多次" style="text;html=1;align=center;verticalAlign=middle;whiteSpace=wrap;rounded=0;fontStyle=1" vertex="1" parent="1">
                    <mxGeometry x="-150" y="595" width="60" height="30" as="geometry"/>
                </mxCell>
                <mxCell id="109" value="高低位交换" style="text;html=1;align=center;verticalAlign=middle;whiteSpace=wrap;rounded=0;fontStyle=1" vertex="1" parent="1">
                    <mxGeometry x="240" y="525" width="80" height="30" as="geometry"/>
                </mxCell>
                <mxCell id="128" value="" style="group" vertex="1" connectable="0" parent="1">
                    <mxGeometry x="120" y="830" width="360" height="20" as="geometry"/>
                </mxCell>
                <mxCell id="110" value="l1" style="rounded=0;whiteSpace=wrap;html=1;fillColor=#fff2cc;strokeColor=#d6b656;" vertex="1" parent="128">
                    <mxGeometry x="120" width="20" height="20" as="geometry"/>
                </mxCell>
                <mxCell id="111" value="l2" style="rounded=0;whiteSpace=wrap;html=1;fillColor=#fff2cc;strokeColor=#d6b656;" vertex="1" parent="128">
                    <mxGeometry x="140" width="20" height="20" as="geometry"/>
                </mxCell>
                <mxCell id="112" value="l3" style="rounded=0;whiteSpace=wrap;html=1;fillColor=#fff2cc;strokeColor=#d6b656;" vertex="1" parent="128">
                    <mxGeometry x="160" width="20" height="20" as="geometry"/>
                </mxCell>
                <mxCell id="113" value="l4" style="rounded=0;whiteSpace=wrap;html=1;fillColor=#dae8fc;strokeColor=#6c8ebf;" vertex="1" parent="128">
                    <mxGeometry width="20" height="20" as="geometry"/>
                </mxCell>
                <mxCell id="114" value="l5" style="rounded=0;whiteSpace=wrap;html=1;fillColor=#dae8fc;strokeColor=#6c8ebf;" vertex="1" parent="128">
                    <mxGeometry x="20" width="20" height="20" as="geometry"/>
                </mxCell>
                <mxCell id="115" value="l6" style="rounded=0;whiteSpace=wrap;html=1;fillColor=#dae8fc;strokeColor=#6c8ebf;" vertex="1" parent="128">
                    <mxGeometry x="40" width="20" height="20" as="geometry"/>
                </mxCell>
                <mxCell id="116" value="l7" style="rounded=0;whiteSpace=wrap;html=1;fillColor=#dae8fc;strokeColor=#6c8ebf;" vertex="1" parent="128">
                    <mxGeometry x="60" width="20" height="20" as="geometry"/>
                </mxCell>
                <mxCell id="117" value="l8" style="rounded=0;whiteSpace=wrap;html=1;fillColor=#dae8fc;strokeColor=#6c8ebf;" vertex="1" parent="128">
                    <mxGeometry x="80" width="20" height="20" as="geometry"/>
                </mxCell>
                <mxCell id="118" value="l9" style="rounded=0;whiteSpace=wrap;html=1;fillColor=#dae8fc;strokeColor=#6c8ebf;" vertex="1" parent="128">
                    <mxGeometry x="100" width="20" height="20" as="geometry"/>
                </mxCell>
                <mxCell id="119" value="h1" style="rounded=0;whiteSpace=wrap;html=1;fillColor=#f8cecc;strokeColor=#b85450;" vertex="1" parent="128">
                    <mxGeometry x="260" width="20" height="20" as="geometry"/>
                </mxCell>
                <mxCell id="120" value="h2" style="rounded=0;whiteSpace=wrap;html=1;fillColor=#f8cecc;strokeColor=#b85450;" vertex="1" parent="128">
                    <mxGeometry x="280" width="20" height="20" as="geometry"/>
                </mxCell>
                <mxCell id="121" value="h3" style="rounded=0;whiteSpace=wrap;html=1;fillColor=#f8cecc;strokeColor=#b85450;" vertex="1" parent="128">
                    <mxGeometry x="300" width="20" height="20" as="geometry"/>
                </mxCell>
                <mxCell id="122" value="h4" style="rounded=0;whiteSpace=wrap;html=1;fillColor=#f8cecc;strokeColor=#b85450;" vertex="1" parent="128">
                    <mxGeometry x="320" width="20" height="20" as="geometry"/>
                </mxCell>
                <mxCell id="123" value="h5" style="rounded=0;whiteSpace=wrap;html=1;fillColor=#f8cecc;strokeColor=#b85450;" vertex="1" parent="128">
                    <mxGeometry x="340" width="20" height="20" as="geometry"/>
                </mxCell>
                <mxCell id="124" value="h6" style="rounded=0;whiteSpace=wrap;html=1;fillColor=#d5e8d4;strokeColor=#82b366;" vertex="1" parent="128">
                    <mxGeometry x="180" width="20" height="20" as="geometry"/>
                </mxCell>
                <mxCell id="125" value="h7" style="rounded=0;whiteSpace=wrap;html=1;fillColor=#d5e8d4;strokeColor=#82b366;" vertex="1" parent="128">
                    <mxGeometry x="200" width="20" height="20" as="geometry"/>
                </mxCell>
                <mxCell id="126" value="h8" style="rounded=0;whiteSpace=wrap;html=1;fillColor=#d5e8d4;strokeColor=#82b366;" vertex="1" parent="128">
                    <mxGeometry x="220" width="20" height="20" as="geometry"/>
                </mxCell>
                <mxCell id="127" value="h9" style="rounded=0;whiteSpace=wrap;html=1;fillColor=#d5e8d4;strokeColor=#82b366;" vertex="1" parent="128">
                    <mxGeometry x="240" width="20" height="20" as="geometry"/>
                </mxCell>
                <mxCell id="129" value="" style="group" vertex="1" connectable="0" parent="1">
                    <mxGeometry x="50" y="620" width="180" height="20" as="geometry"/>
                </mxCell>
                <mxCell id="88" value="h1" style="rounded=0;whiteSpace=wrap;html=1;fillColor=#f8cecc;strokeColor=#b85450;" vertex="1" parent="129">
                    <mxGeometry x="80" width="20" height="20" as="geometry"/>
                </mxCell>
                <mxCell id="89" value="h2" style="rounded=0;whiteSpace=wrap;html=1;fillColor=#f8cecc;strokeColor=#b85450;" vertex="1" parent="129">
                    <mxGeometry x="100" width="20" height="20" as="geometry"/>
                </mxCell>
                <mxCell id="90" value="h3" style="rounded=0;whiteSpace=wrap;html=1;fillColor=#f8cecc;strokeColor=#b85450;" vertex="1" parent="129">
                    <mxGeometry x="120" width="20" height="20" as="geometry"/>
                </mxCell>
                <mxCell id="91" value="h4" style="rounded=0;whiteSpace=wrap;html=1;fillColor=#f8cecc;strokeColor=#b85450;" vertex="1" parent="129">
                    <mxGeometry x="140" width="20" height="20" as="geometry"/>
                </mxCell>
                <mxCell id="92" value="h5" style="rounded=0;whiteSpace=wrap;html=1;fillColor=#f8cecc;strokeColor=#b85450;" vertex="1" parent="129">
                    <mxGeometry x="160" width="20" height="20" as="geometry"/>
                </mxCell>
                <mxCell id="93" value="h6" style="rounded=0;whiteSpace=wrap;html=1;fillColor=#d5e8d4;strokeColor=#82b366;" vertex="1" parent="129">
                    <mxGeometry width="20" height="20" as="geometry"/>
                </mxCell>
                <mxCell id="94" value="h7" style="rounded=0;whiteSpace=wrap;html=1;fillColor=#d5e8d4;strokeColor=#82b366;" vertex="1" parent="129">
                    <mxGeometry x="20" width="20" height="20" as="geometry"/>
                </mxCell>
                <mxCell id="95" value="h8" style="rounded=0;whiteSpace=wrap;html=1;fillColor=#d5e8d4;strokeColor=#82b366;" vertex="1" parent="129">
                    <mxGeometry x="40" width="20" height="20" as="geometry"/>
                </mxCell>
                <mxCell id="96" value="h9" style="rounded=0;whiteSpace=wrap;html=1;fillColor=#d5e8d4;strokeColor=#82b366;" vertex="1" parent="129">
                    <mxGeometry x="60" width="20" height="20" as="geometry"/>
                </mxCell>
                <mxCell id="130" value="" style="group" vertex="1" connectable="0" parent="1">
                    <mxGeometry x="330" y="625" width="180" height="20" as="geometry"/>
                </mxCell>
                <mxCell id="100" value="l1" style="rounded=0;whiteSpace=wrap;html=1;fillColor=#fff2cc;strokeColor=#d6b656;" vertex="1" parent="130">
                    <mxGeometry x="120" width="20" height="20" as="geometry"/>
                </mxCell>
                <mxCell id="101" value="l2" style="rounded=0;whiteSpace=wrap;html=1;fillColor=#fff2cc;strokeColor=#d6b656;" vertex="1" parent="130">
                    <mxGeometry x="140" width="20" height="20" as="geometry"/>
                </mxCell>
                <mxCell id="102" value="l3" style="rounded=0;whiteSpace=wrap;html=1;fillColor=#fff2cc;strokeColor=#d6b656;" vertex="1" parent="130">
                    <mxGeometry x="160" width="20" height="20" as="geometry"/>
                </mxCell>
                <mxCell id="103" value="l4" style="rounded=0;whiteSpace=wrap;html=1;fillColor=#dae8fc;strokeColor=#6c8ebf;" vertex="1" parent="130">
                    <mxGeometry width="20" height="20" as="geometry"/>
                </mxCell>
                <mxCell id="104" value="l5" style="rounded=0;whiteSpace=wrap;html=1;fillColor=#dae8fc;strokeColor=#6c8ebf;" vertex="1" parent="130">
                    <mxGeometry x="20" width="20" height="20" as="geometry"/>
                </mxCell>
                <mxCell id="105" value="l6" style="rounded=0;whiteSpace=wrap;html=1;fillColor=#dae8fc;strokeColor=#6c8ebf;" vertex="1" parent="130">
                    <mxGeometry x="40" width="20" height="20" as="geometry"/>
                </mxCell>
                <mxCell id="106" value="l7" style="rounded=0;whiteSpace=wrap;html=1;fillColor=#dae8fc;strokeColor=#6c8ebf;" vertex="1" parent="130">
                    <mxGeometry x="60" width="20" height="20" as="geometry"/>
                </mxCell>
                <mxCell id="107" value="l8" style="rounded=0;whiteSpace=wrap;html=1;fillColor=#dae8fc;strokeColor=#6c8ebf;" vertex="1" parent="130">
                    <mxGeometry x="80" width="20" height="20" as="geometry"/>
                </mxCell>
                <mxCell id="108" value="l9" style="rounded=0;whiteSpace=wrap;html=1;fillColor=#dae8fc;strokeColor=#6c8ebf;" vertex="1" parent="130">
                    <mxGeometry x="100" width="20" height="20" as="geometry"/>
                </mxCell>
                <mxCell id="131" value="" style="group" vertex="1" connectable="0" parent="1">
                    <mxGeometry x="50" y="240" width="180" height="20" as="geometry"/>
                </mxCell>
                <mxCell id="23" value="1" style="rounded=0;whiteSpace=wrap;html=1;" vertex="1" parent="131">
                    <mxGeometry width="20" height="20" as="geometry"/>
                </mxCell>
                <mxCell id="24" value="2" style="rounded=0;whiteSpace=wrap;html=1;" vertex="1" parent="131">
                    <mxGeometry x="20" width="20" height="20" as="geometry"/>
                </mxCell>
                <mxCell id="25" value="3" style="rounded=0;whiteSpace=wrap;html=1;" vertex="1" parent="131">
                    <mxGeometry x="40" width="20" height="20" as="geometry"/>
                </mxCell>
                <mxCell id="26" value="4" style="rounded=0;whiteSpace=wrap;html=1;" vertex="1" parent="131">
                    <mxGeometry x="60" width="20" height="20" as="geometry"/>
                </mxCell>
                <mxCell id="27" value="5" style="rounded=0;whiteSpace=wrap;html=1;" vertex="1" parent="131">
                    <mxGeometry x="80" width="20" height="20" as="geometry"/>
                </mxCell>
                <mxCell id="28" value="6" style="rounded=0;whiteSpace=wrap;html=1;" vertex="1" parent="131">
                    <mxGeometry x="100" width="20" height="20" as="geometry"/>
                </mxCell>
                <mxCell id="29" value="7" style="rounded=0;whiteSpace=wrap;html=1;" vertex="1" parent="131">
                    <mxGeometry x="120" width="20" height="20" as="geometry"/>
                </mxCell>
                <mxCell id="30" value="8" style="rounded=0;whiteSpace=wrap;html=1;" vertex="1" parent="131">
                    <mxGeometry x="140" width="20" height="20" as="geometry"/>
                </mxCell>
                <mxCell id="31" value="9" style="rounded=0;whiteSpace=wrap;html=1;" vertex="1" parent="131">
                    <mxGeometry x="160" width="20" height="20" as="geometry"/>
                </mxCell>
                <mxCell id="133" value="" style="group" vertex="1" connectable="0" parent="1">
                    <mxGeometry x="330" y="240" width="180" height="20" as="geometry"/>
                </mxCell>
                <mxCell id="32" value="9" style="rounded=0;whiteSpace=wrap;html=1;" vertex="1" parent="133">
                    <mxGeometry width="20" height="20" as="geometry"/>
                </mxCell>
                <mxCell id="33" value="8" style="rounded=0;whiteSpace=wrap;html=1;" vertex="1" parent="133">
                    <mxGeometry x="20" width="20" height="20" as="geometry"/>
                </mxCell>
                <mxCell id="34" value="7" style="rounded=0;whiteSpace=wrap;html=1;" vertex="1" parent="133">
                    <mxGeometry x="40" width="20" height="20" as="geometry"/>
                </mxCell>
                <mxCell id="35" value="6" style="rounded=0;whiteSpace=wrap;html=1;" vertex="1" parent="133">
                    <mxGeometry x="60" width="20" height="20" as="geometry"/>
                </mxCell>
                <mxCell id="36" value="5" style="rounded=0;whiteSpace=wrap;html=1;" vertex="1" parent="133">
                    <mxGeometry x="80" width="20" height="20" as="geometry"/>
                </mxCell>
                <mxCell id="37" value="4" style="rounded=0;whiteSpace=wrap;html=1;" vertex="1" parent="133">
                    <mxGeometry x="100" width="20" height="20" as="geometry"/>
                </mxCell>
                <mxCell id="38" value="3" style="rounded=0;whiteSpace=wrap;html=1;" vertex="1" parent="133">
                    <mxGeometry x="120" width="20" height="20" as="geometry"/>
                </mxCell>
                <mxCell id="39" value="2" style="rounded=0;whiteSpace=wrap;html=1;" vertex="1" parent="133">
                    <mxGeometry x="140" width="20" height="20" as="geometry"/>
                </mxCell>
                <mxCell id="40" value="1" style="rounded=0;whiteSpace=wrap;html=1;" vertex="1" parent="133">
                    <mxGeometry x="160" width="20" height="20" as="geometry"/>
                </mxCell>
                <mxCell id="134" value="" style="group" vertex="1" connectable="0" parent="1">
                    <mxGeometry x="260" y="70" width="180" height="20" as="geometry"/>
                </mxCell>
                <mxCell id="11" value="9" style="rounded=0;whiteSpace=wrap;html=1;" vertex="1" parent="134">
                    <mxGeometry width="20" height="20" as="geometry"/>
                </mxCell>
                <mxCell id="12" value="8" style="rounded=0;whiteSpace=wrap;html=1;" vertex="1" parent="134">
                    <mxGeometry x="20" width="20" height="20" as="geometry"/>
                </mxCell>
                <mxCell id="13" value="7" style="rounded=0;whiteSpace=wrap;html=1;" vertex="1" parent="134">
                    <mxGeometry x="40" width="20" height="20" as="geometry"/>
                </mxCell>
                <mxCell id="14" value="6" style="rounded=0;whiteSpace=wrap;html=1;" vertex="1" parent="134">
                    <mxGeometry x="60" width="20" height="20" as="geometry"/>
                </mxCell>
                <mxCell id="15" value="5" style="rounded=0;whiteSpace=wrap;html=1;" vertex="1" parent="134">
                    <mxGeometry x="80" width="20" height="20" as="geometry"/>
                </mxCell>
                <mxCell id="16" value="4" style="rounded=0;whiteSpace=wrap;html=1;" vertex="1" parent="134">
                    <mxGeometry x="100" width="20" height="20" as="geometry"/>
                </mxCell>
                <mxCell id="17" value="3" style="rounded=0;whiteSpace=wrap;html=1;" vertex="1" parent="134">
                    <mxGeometry x="120" width="20" height="20" as="geometry"/>
                </mxCell>
                <mxCell id="18" value="2" style="rounded=0;whiteSpace=wrap;html=1;" vertex="1" parent="134">
                    <mxGeometry x="140" width="20" height="20" as="geometry"/>
                </mxCell>
                <mxCell id="19" value="1" style="rounded=0;whiteSpace=wrap;html=1;" vertex="1" parent="134">
                    <mxGeometry x="160" width="20" height="20" as="geometry"/>
                </mxCell>
                <mxCell id="135" value="" style="group" vertex="1" connectable="0" parent="1">
                    <mxGeometry x="80" y="70" width="180" height="20" as="geometry"/>
                </mxCell>
                <mxCell id="2" value="1" style="rounded=0;whiteSpace=wrap;html=1;" vertex="1" parent="135">
                    <mxGeometry width="20" height="20" as="geometry"/>
                </mxCell>
                <mxCell id="3" value="2" style="rounded=0;whiteSpace=wrap;html=1;" vertex="1" parent="135">
                    <mxGeometry x="20" width="20" height="20" as="geometry"/>
                </mxCell>
                <mxCell id="4" value="3" style="rounded=0;whiteSpace=wrap;html=1;" vertex="1" parent="135">
                    <mxGeometry x="40" width="20" height="20" as="geometry"/>
                </mxCell>
                <mxCell id="5" value="4" style="rounded=0;whiteSpace=wrap;html=1;" vertex="1" parent="135">
                    <mxGeometry x="60" width="20" height="20" as="geometry"/>
                </mxCell>
                <mxCell id="6" value="5" style="rounded=0;whiteSpace=wrap;html=1;" vertex="1" parent="135">
                    <mxGeometry x="80" width="20" height="20" as="geometry"/>
                </mxCell>
                <mxCell id="7" value="6" style="rounded=0;whiteSpace=wrap;html=1;" vertex="1" parent="135">
                    <mxGeometry x="100" width="20" height="20" as="geometry"/>
                </mxCell>
                <mxCell id="8" value="7" style="rounded=0;whiteSpace=wrap;html=1;" vertex="1" parent="135">
                    <mxGeometry x="120" width="20" height="20" as="geometry"/>
                </mxCell>
                <mxCell id="9" value="8" style="rounded=0;whiteSpace=wrap;html=1;" vertex="1" parent="135">
                    <mxGeometry x="140" width="20" height="20" as="geometry"/>
                </mxCell>
                <mxCell id="10" value="9" style="rounded=0;whiteSpace=wrap;html=1;" vertex="1" parent="135">
                    <mxGeometry x="160" width="20" height="20" as="geometry"/>
                </mxCell>
                <mxCell id="139" value="高低位交换后拼接" style="text;html=1;align=center;verticalAlign=middle;whiteSpace=wrap;rounded=0;fontStyle=1" vertex="1" parent="1">
                    <mxGeometry x="250" y="680" width="80" height="30" as="geometry"/>
                </mxCell>
                <mxCell id="140" style="edgeStyle=none;html=1;exitX=0.5;exitY=1;exitDx=0;exitDy=0;entryX=0.5;entryY=0;entryDx=0;entryDy=0;fillColor=#dae8fc;strokeColor=#6c8ebf;dashed=1;strokeWidth=2;" edge="1" parent="1" source="107" target="117">
                    <mxGeometry relative="1" as="geometry"/>
                </mxCell>
                <mxCell id="141" style="edgeStyle=none;html=1;exitX=0.5;exitY=1;exitDx=0;exitDy=0;entryX=0.5;entryY=0;entryDx=0;entryDy=0;fillColor=#f8cecc;strokeColor=#b85450;dashed=1;strokeWidth=2;" edge="1" parent="1" source="88" target="119">
                    <mxGeometry relative="1" as="geometry"/>
                </mxCell>
                <mxCell id="142" style="edgeStyle=none;html=1;exitX=0.5;exitY=1;exitDx=0;exitDy=0;entryX=0.5;entryY=0;entryDx=0;entryDy=0;fillColor=#fff2cc;strokeColor=#d6b656;strokeWidth=2;dashed=1;" edge="1" parent="1" source="101" target="111">
                    <mxGeometry relative="1" as="geometry"/>
                </mxCell>
                <mxCell id="143" style="edgeStyle=none;html=1;exitX=0.5;exitY=1;exitDx=0;exitDy=0;entryX=0.5;entryY=0;entryDx=0;entryDy=0;strokeWidth=2;fillColor=#d5e8d4;strokeColor=#82b366;dashed=1;" edge="1" parent="1" source="94" target="125">
                    <mxGeometry relative="1" as="geometry"/>
                </mxCell>
                <mxCell id="144" value="结果sn" style="text;html=1;align=center;verticalAlign=middle;whiteSpace=wrap;rounded=0;fontStyle=1" vertex="1" parent="1">
                    <mxGeometry x="20" y="825" width="60" height="30" as="geometry"/>
                </mxCell>
                <mxCell id="151" value="不同的值映射结果必然不同" style="text;html=1;align=center;verticalAlign=middle;whiteSpace=wrap;rounded=0;fillColor=#f8cecc;strokeColor=#b85450;" vertex="1" parent="1">
                    <mxGeometry x="510" y="350" width="160" height="30" as="geometry"/>
                </mxCell>
                <mxCell id="152" value="不同的值交换高低位后结果必然不同" style="text;html=1;align=center;verticalAlign=middle;whiteSpace=wrap;rounded=0;fillColor=#f8cecc;strokeColor=#b85450;" vertex="1" parent="1">
                    <mxGeometry x="510" y="555" width="160" height="30" as="geometry"/>
                </mxCell>
            </root>
        </mxGraphModel>
    </diagram>
</mxfile>